# xmcd
#
# Track frame offsets: 
#        150
#        20884
#        42008
#        61548
#        82685
#        102564
#        122801
#        143578
#        166032
#        184795
#        204133
#        224159
#        246123
#        264667
#        281208
#        295611
#
# Disc length: 4272 seconds
#
# Revision: 1
# Processed by: cddbd v1.5.1PL2 Copyright (c) Steve Scherf et al.
# Submitted via: ExactAudioCopy v0.95a5
#
DISCID=e310ae10
DTITLE=Various Artist - Salsa Moderna - Volume two
DYEAR=2004
DGENRE=Salsa
TTITLE0=Freddy Cruz and Fuerza Latina - El Cacharrito
TTITLE1=Los Niches (feat Hector Viveros) - Que Es Lo Que Tiene Cali
TTITLE2=Alfredo De La Fe - Barranquila
TTITLE3=Los Bunkers (feat Jose Elvar) - Esta Sabroso
TTITLE4=Sonora Carruseles - Que Suene Mi Campana
TTITLE5=Gabino Pampini - Me Recoradaras
TTITLE6=Los Nemus Del Pacifico - Castigala
TTITLE7=Latinos En La Casa - Vete Ya
TTITLE8=La Sabrosura - La Malquerido
TTITLE9=Fruko Y Sus Tesos - Pa'Goza' Con Fruko
TTITLE10=Los Titanes - Ella Sabe Que Me Gusta
TTITLE11=Luis Alberto - Reina De Reinas
TTITLE12=Los Brujos Del Son - Por Ti
TTITLE13=Grupo Raza - Payaso
TTITLE14=Hugo Mounares Y Su Orquesta - Cali Es Cali
TTITLE15=Los Titanes - Merecumbe
EXTD=YEAR: 2004
EXTT0=
EXTT1=
EXTT2=
EXTT3=
EXTT4=
EXTT5=
EXTT6=
EXTT7=
EXTT8=
EXTT9=
EXTT10=
EXTT11=
EXTT12=
EXTT13=
EXTT14=
EXTT15=
PLAYORDER=
